<?xml version="1.0" encoding="utf-8"?>
<!-- Generator: Adobe Illustrator 26.5.0, SVG Export Plug-In . SVG Version: 6.00 Build 0)  -->
<svg version="1.0"
	 id="svg5261" xmlns:sodipodi="http://sodipodi.sourceforge.net/DTD/sodipodi-0.dtd" xmlns:inkscape="http://www.inkscape.org/namespaces/inkscape" xmlns:rdf="http://www.w3.org/1999/02/22-rdf-syntax-ns#" xmlns:cc="http://creativecommons.org/ns#" xmlns:svg="http://www.w3.org/2000/svg" xmlns:dc="http://purl.org/dc/elements/1.1/" inkscape:version="0.91 r13725"
	 xmlns="http://www.w3.org/2000/svg" xmlns:xlink="http://www.w3.org/1999/xlink" x="0px" y="0px" viewBox="0 0 184.69 134"
	 style="enable-background:new 0 0 184.69 134;" xml:space="preserve">
<style type="text/css">
	.st0{clip-path:url(#SVGID_00000108282046457177864510000007705312512838776211_);}
	.st1{fill:#0069AB;}
	.st2{clip-path:url(#SVGID_00000044171337548080005540000008014008281537852819_);}
	.st3{fill:#E31C24;}
	.st4{fill:#A68561;}
</style>
<sodipodi:namedview  bordercolor="#666666" borderopacity="1.0" fit-margin-bottom="0" fit-margin-left="0" fit-margin-right="0" fit-margin-top="0" id="base" inkscape:current-layer="layer1" inkscape:cx="752.39589" inkscape:cy="-436.25105" inkscape:document-units="px" inkscape:pageopacity="0.0" inkscape:pageshadow="2" inkscape:window-height="705" inkscape:window-maximized="1" inkscape:window-width="1366" inkscape:window-x="-8" inkscape:window-y="-8" inkscape:zoom="0.35" pagecolor="#ffffff" showgrid="false">
	</sodipodi:namedview>
<g id="layer1" transform="translate(864.53875,-48.61323)" inkscape:groupmode="layer" inkscape:label="Layer 1">
	<g id="g26" transform="matrix(1.25,0,0,-1.25,-1343.44,1055.9759)">
		<g>
			<defs>
				<rect id="SVGID_1_" x="25.9" y="38.59" width="595.28" height="841.89"/>
			</defs>
			<clipPath id="SVGID_00000101812432671567266550000016538249080828558742_">
				<use xlink:href="#SVGID_1_"  style="overflow:visible;"/>
			</clipPath>
			<g id="g28" style="clip-path:url(#SVGID_00000101812432671567266550000016538249080828558742_);">
				<g id="g34" transform="translate(383.308,782.5246)">
					<path id="path36" inkscape:connector-curvature="0" class="st1" d="M8.76-33.73c0.32,0.07,0.56,0.15,0.71,0.26
						c0.35,0.25,0.6,0.72,0.75,1.41l2.34,10.89c0.06,0.32,0.11,0.59,0.14,0.81c0.03,0.21,0.04,0.38,0.03,0.5
						c-0.02,0.43-0.17,0.71-0.42,0.82c-0.09,0.04-0.2,0.08-0.34,0.11l0.17,0.76h5.33c1.82,0,3.25-0.29,4.28-0.86
						c1.04-0.57,1.6-1.49,1.67-2.77c0.08-1.24-0.48-2.23-1.67-2.97c-0.64-0.4-1.51-0.74-2.61-1.01c1.04-0.36,1.79-0.73,2.24-1.09
						c0.76-0.61,1.17-1.45,1.23-2.5c0.09-1.34-0.4-2.51-1.44-3.52c-1.04-1-2.85-1.51-5.43-1.51H8.61L8.76-33.73z M14.3-33.56
						c0.2-0.07,0.51-0.1,0.93-0.1c1.54,0,2.61,0.71,3.2,2.13c0.35,0.84,0.5,1.72,0.44,2.63c-0.06,1.12-0.5,1.86-1.29,2.25
						c-0.47,0.23-1.32,0.37-2.54,0.43l-1.24-5.92c-0.02-0.09-0.05-0.2-0.07-0.33c-0.01-0.12-0.01-0.26,0-0.42
						C13.76-33.22,13.94-33.44,14.3-33.56 M17.62-25.2c0.44,0.1,0.83,0.32,1.18,0.65c0.45,0.42,0.75,1,0.9,1.74
						c0.1,0.48,0.14,0.96,0.11,1.43c-0.04,0.71-0.23,1.29-0.56,1.73c-0.33,0.45-0.93,0.68-1.82,0.68c-0.38,0-0.63-0.09-0.77-0.26
						c-0.13-0.18-0.23-0.45-0.31-0.81l-1.17-5.45C16.38-25.4,17.19-25.3,17.62-25.2"/>
				</g>
				<g id="g38" transform="translate(404.0737,792.0671)">
					<path id="path40" inkscape:connector-curvature="0" class="st1" d="M4.61-35.64c1.38,1.92,2.82,2.88,4.34,2.88
						c0.62,0,1.08-0.18,1.4-0.54c0.18-0.22,0.36-0.59,0.52-1.12l0.95,1.34h2.11l-1.45-5.55c-0.2-0.81-0.35-1.42-0.43-1.85
						c-0.17-0.81-0.25-1.39-0.23-1.74c0.01-0.14,0.04-0.24,0.11-0.3c0.07-0.06,0.14-0.08,0.21-0.08c0.15,0,0.28,0.05,0.41,0.15
						c0.13,0.11,0.28,0.26,0.43,0.46l0.11,0.13c0.17-0.11,0.38-0.26,0.57-0.39c-0.37-0.51-0.74-0.92-1.1-1.27
						c-0.56-0.55-1.16-0.82-1.76-0.82c-0.37,0-0.74,0.14-1.11,0.41c-0.36,0.28-0.56,0.68-0.58,1.22c-0.01,0.2,0.07,0.69,0.23,1.47
						l-0.08-0.14c-0.08-0.14-0.21-0.35-0.38-0.63c-0.4-0.65-0.88-1.2-1.44-1.65c-0.55-0.45-1.19-0.67-1.89-0.67
						c-0.65,0-1.25,0.24-1.83,0.72c-0.58,0.48-0.9,1.3-0.96,2.45C2.66-39.34,3.28-37.51,4.61-35.64 M10.17-34.32
						C10-33.96,9.71-33.78,9.3-33.78c-0.88,0-1.73-1.04-2.55-3.11c-0.73-1.85-1.06-3.25-1.01-4.23c0.02-0.39,0.13-0.72,0.33-1.01
						c0.21-0.28,0.48-0.43,0.79-0.43c0.81-0.01,1.67,1.06,2.58,3.2c0.64,1.79,0.93,3.22,0.88,4.26
						C10.31-34.77,10.26-34.52,10.17-34.32"/>
				</g>
				<g id="g42" transform="translate(415.9761,781.6676)">
					<path id="path44" inkscape:connector-curvature="0" class="st1" d="M2.23-33.56l1.89,8.17c0.07,0.31,0.12,0.57,0.15,0.75
						c0.06,0.34,0.09,0.58,0.09,0.71c-0.02,0.29-0.12,0.47-0.3,0.55c-0.1,0.03-0.24,0.07-0.44,0.09l0.11,0.62h3.92l-1.19-4.2
						l0.06-0.03c-0.04-0.04,0.18,0.32,0.66,1.08c0.48,0.77,0.94,1.39,1.37,1.86c0.44,0.48,0.9,0.86,1.38,1.15
						c0.5,0.29,1.01,0.44,1.57,0.44c0.51,0,0.96-0.15,1.32-0.44c0.38-0.29,0.58-0.77,0.62-1.44c0.03-0.62-0.26-1.97-0.87-4.07
						c-0.62-2.1-0.92-3.22-0.91-3.37c0-0.14,0.05-0.25,0.14-0.34c0.09-0.07,0.18-0.11,0.27-0.11c0.2,0,0.46,0.23,0.81,0.68
						l0.58-0.37c-0.25-0.37-0.48-0.67-0.69-0.89c-0.69-0.74-1.44-1.1-2.26-1.1c-0.44,0-0.83,0.13-1.19,0.38
						c-0.35,0.25-0.54,0.65-0.57,1.2c-0.02,0.35,0.04,0.85,0.17,1.52c0.14,0.66,0.3,1.34,0.51,2.05l1.03,3.63l0.05,0.22
						c0.01,0.06,0.02,0.13,0.02,0.19c-0.01,0.18-0.08,0.31-0.21,0.37c-0.12,0.07-0.25,0.11-0.4,0.11c-0.49,0-1.03-0.38-1.6-1.16
						c-0.57-0.77-1.03-1.53-1.38-2.3c-0.38-0.83-0.68-1.67-0.93-2.52c-0.24-0.86-0.53-2-0.85-3.43H2.23z"/>
				</g>
				<g id="g46" transform="translate(430.6213,781.6676)">
					<path id="path48" inkscape:connector-curvature="0" class="st1" d="M-0.7-33.56c0,0,3.17,14.24,3.2,14.39
						c0.02,0.15,0.03,0.29,0.03,0.44c-0.02,0.36-0.15,0.58-0.38,0.66C2.03-18.03,1.89-18,1.7-17.98l0.14,0.66h3.96L3.53-27.69
						c0.88,0.66,1.65,1.29,2.3,1.88c1,0.92,1.5,1.57,1.48,1.93c-0.01,0.26-0.14,0.42-0.38,0.49c-0.11,0.03-0.22,0.05-0.35,0.07
						l0.14,0.65l3.57-0.04l-0.23-0.82c-0.64-0.02-0.6-0.08-2.18-1.58c0,0-1.17-1.11-1.33-1.25l-0.12-0.11
						c0.02-0.06,0.12-0.48,0.3-1.24c0.21-0.88,0.37-1.48,0.47-1.79c0.36-1.06,0.61-1.75,0.77-2.07c0.16-0.32,0.39-0.48,0.67-0.48
						c0.29,0,0.55,0.15,0.79,0.46c0.02,0.03,0.06,0.07,0.09,0.12l0.51-0.38c-0.23-0.37-0.47-0.72-0.73-1.04
						c-0.5-0.6-1.11-0.9-1.81-0.9c-0.53,0-0.99,0.18-1.37,0.53c-0.37,0.36-0.69,0.83-0.95,1.42c-0.28,0.62-0.52,1.34-0.72,2.16
						c-0.19,0.81-0.29,1.26-0.29,1.33l-0.91-0.66l-0.98-4.55H-0.7z"/>
				</g>
				<g id="g50" transform="translate(493.0301,797.3198)">
					<path id="path52" inkscape:connector-curvature="0" class="st1" d="M-13.18-36.69h2.57c0.89,0,1.55-0.18,1.55-1.16
						c0-1-1-1.3-1.79-1.3h-2.82L-13.18-36.69z M-20.61-49.03h9.31c3.55,0,6.69,1.55,6.69,5.46c0,1.5-0.95,2.93-2.46,3.25v0.04h0.02
						c1.96,0.52,2.98,1.87,2.98,3.91c0,2.35-1.32,3.57-4.84,3.57h-8.34C-17.24-32.78-20.61-49.03-20.61-49.03z M-14.3-42.17h2.75
						c1.05,0,1.94-0.18,1.94-1.39c0-1.32-1.23-1.63-2.12-1.63h-3.21C-14.94-45.19-14.3-42.17-14.3-42.17z"/>
				</g>
			</g>
		</g>
	</g>
	<g id="g54" transform="matrix(1.25,0,0,-1.25,-707.09471,78.60723)">
		<path id="path56" inkscape:connector-curvature="0" class="st1" d="M-16.39-33.6h5l2.5,12.08h4.5l0.87,4.16h-14.01l-0.86-4.16h4.5
			L-16.39-33.6z"/>
	</g>
	<g id="g58" transform="matrix(1.25,0,0,-1.25,-689.47346,78.60723)">
		<path id="path60" inkscape:connector-curvature="0" class="st1" d="M-19.21-33.6h4.75l1.89,9.1h0.04l2.98-9.1h4.91l3.41,16.24
			h-4.76l-1.82-8.87h-0.04l-3.05,8.87h-4.96L-19.21-33.6z"/>
	</g>
	<g id="g62" transform="matrix(1.25,0,0,-1.25,-1343.44,1055.9759)">
		<g>
			<defs>
				<rect id="SVGID_00000121972568474446503190000015471775435921900454_" x="25.9" y="38.59" width="595.28" height="841.89"/>
			</defs>
			<clipPath id="SVGID_00000138562434829952375530000010077704313470895765_">
				<use xlink:href="#SVGID_00000121972568474446503190000015471775435921900454_"  style="overflow:visible;"/>
			</clipPath>
			<g id="g64" style="clip-path:url(#SVGID_00000138562434829952375530000010077704313470895765_);">
				<g id="g70" transform="translate(481.4295,767.8918)">
					<path id="path72" inkscape:connector-curvature="0" class="st3" d="M-10.86-30.8c0.15,0.55,0.09,0.55,0.46,2.04
						c0.27,1.47,1.88,3.72,4.74,3.95c0.97,0.12,38.33,1.7,46.31,2.26l-0.24-1.38C32.88-24.9-1.14-29.51-10.86-30.8"/>
				</g>
			</g>
		</g>
	</g>
	<g id="g74" transform="matrix(1.25,0,0,-1.25,-767.17296,78.61073)">
		<path id="path76" inkscape:connector-curvature="0" class="st4" d="M-6.78-33.6v-2.95l2.56,1.48l2.56-1.48v2.95l-2.56,1.48
			L-6.78-33.6z"/>
	</g>
	<g id="g78" transform="matrix(1.25,0,0,-1.25,-751.18946,78.61073)">
		<path id="path80" inkscape:connector-curvature="0" class="st4" d="M-9.34-33.6v2.96l-7.67,4.43l-7.67-4.43v-2.96l7.67,4.43
			L-9.34-33.6z"/>
	</g>
	<g id="g82" transform="matrix(1.25,0,0,-1.25,-779.15984,57.84198)">
		<path id="path84" inkscape:connector-curvature="0" class="st1" d="M-4.86-36.92l10.23,5.91l10.23-5.91v-11.81l-2.56-1.48v11.81
			l-7.67,4.43L-2.3-38.4v-11.81l-2.56,1.48V-36.92z"/>
	</g>
	<g id="g86" transform="matrix(1.25,0,0,-1.25,-763.17796,57.84198)">
		<path id="path88" inkscape:connector-curvature="0" class="st1" d="M-7.42-36.92l5.12-2.95v-11.81l-2.56-1.47v11.81l-2.56,1.47
			l-2.56-1.47v-11.81l-2.56,1.47v11.81L-7.42-36.92z"/>
	</g>
</g>
</svg>
